<?xml version="1.0" encoding="UTF-8"?>
<svg id="Capa_2" data-name="Capa 2" xmlns="http://www.w3.org/2000/svg" viewBox="0 0 55.61 55.61">
  <defs>
    <style>
      .cls-1 {
        fill: #fff;
      }
    </style>
  </defs>
  <g id="Capa_1-2" data-name="Capa 1">
    <path class="cls-1" d="M27.81,0C12.46,0,0,12.46,0,27.81s12.46,27.81,27.81,27.81,27.81-12.46,27.81-27.81S43.15,0,27.81,0ZM27.81,2.42c14.04,0,25.39,11.35,25.39,25.39s-11.35,25.39-25.39,25.39S2.42,41.84,2.42,27.81,13.77,2.42,27.81,2.42ZM27.81,7.25c-4.67,0-8.46,3.59-8.46,8s3.97,9.15,7.69,12.27c.22.19.5.28.78.28s.55-.09.78-.28c3.72-3.12,7.69-7.98,7.69-12.27s-3.8-8-8.46-8ZM16.24,27.82c-1.89.05-3.65.41-5.06,1.21-1.8,1.03-3.09,2.73-3.64,4.77-.58,2.18-.25,4.57.92,6.58,1.62,2.78,4.51,4.35,7.41,4.35,1.32,0,2.65-.33,3.85-1.02,3.76-2.15,6.01-8.03,6.86-12.81.1-.58-.22-1.15-.78-1.35-2.88-1.04-6.41-1.82-9.56-1.74ZM39.38,27.82c-3.16-.08-6.68.7-9.56,1.74-.55.2-.89.77-.78,1.35.85,4.79,3.11,10.67,6.86,12.81,1.21.69,2.53,1.02,3.85,1.02,2.9,0,5.79-1.57,7.41-4.35,1.17-2,1.5-4.4.92-6.58-.55-2.05-1.84-3.75-3.64-4.77-1.41-.8-3.16-1.16-5.06-1.21Z"/>
  </g>
</svg>