<?xml version="1.0" encoding="UTF-8"?>
<svg id="Capa_2" data-name="Capa 2" xmlns="http://www.w3.org/2000/svg" viewBox="0 0 55.61 55.61">
  <defs>
    <style>
      .cls-1 {
        fill: #fff;
      }
    </style>
  </defs>
  <g id="Capa_1-2" data-name="Capa 1">
    <path class="cls-1" d="M43.23,28.19h0c-.15.1-.33.17-.53.18-.27.02-.71.02-1.31.02h-4.85v-.02c.07-.59.25-1.15.51-1.63v-.02c.55-1.03,1.63-1.74,2.88-1.74.06,0,.13,0,.18,0,0,0,0,0,0,0h0s0,0,0,0c.03,0,.06,0,.09,0,1.35,0,2.49.88,2.89,2.11.09.27.14.56.14.85h0v.23ZM55.61,20.13v15.36c0,7.04,0,10.57-1.37,13.26-1.21,2.37-3.13,4.29-5.5,5.5-2.69,1.37-6.21,1.37-13.26,1.37h-15.36c-7.04,0-10.57,0-13.26-1.37-2.37-1.21-4.29-3.13-5.5-5.5-1.37-2.69-1.37-6.21-1.37-13.26v-15.36c0-7.04,0-10.57,1.37-13.26,1.21-2.37,3.13-4.29,5.5-5.5,2.69-1.37,6.21-1.37,13.26-1.37h15.36c7.04,0,10.57,0,13.26,1.37,2.37,1.21,4.29,3.13,5.5,5.5,1.37,2.69,1.37,6.21,1.37,13.26ZM30.19,39.28l-8.4-23.58c-.02-.12-.14-.18-.3-.18h-5.96c-.11.02-.18.11-.18.22,0,.01,0,.02,0,.03h0c0,.54-.05,1.05-.14,1.49-.09.28-.16.48-.23.71l-7.41,21.23c-.07.28,0,.41.25.41h4.32s.03,0,.04,0c.19,0,.36-.14.39-.32l1.75-5.43h8.56l1.89,5.52h0c.04.15.18.25.34.25.01,0,.02,0,.03,0h4.81c.23,0,.3-.12.23-.37ZM48.06,28.98c0-.99-.16-1.95-.43-2.78l-.02-.06c-.31-.94-.78-1.82-1.37-2.56h0c-.63-.79-1.44-1.41-2.4-1.84.02,0,.03.01.05.02l-.05-.02s0,0,0,0c-1.03-.46-2.17-.72-3.37-.72-.06,0-.13,0-.18,0-.13,0-.26,0-.39,0-1.25,0-2.45.27-3.47.72l-.05.02c-1.05.52-1.97,1.25-2.72,2.15,0,0,0,0,0,0h-.01s0,0,0,0c-.76.9-1.34,1.95-1.73,3.16l.02-.08c-.39,1.18-.6,2.44-.6,3.75,0,1.2.18,2.35.48,3.36v.06c.34,1.1.89,2.1,1.59,2.95h.01c.76.93,1.73,1.68,2.89,2.19l-.07-.03c1.29.54,2.71.83,4.19.83.1,0,.2,0,.29,0,.11,0,.23,0,.34,0,1.04,0,2.05-.1,2.93-.28h.06c.81-.15,1.58-.39,2.24-.69h0c.06-.04.11-.1.16-.16,0,0,0,0,0,0h0s0,0,0,0c.03-.08.04-.18.05-.27v-3.52c0-.23-.07-.27-.18-.19-.63.25-1.3.43-2.03.53-.78.15-1.58.24-2.41.26h0s-.09,0-.14,0c-1.02,0-1.99-.21-2.81-.58h-.02c-.67-.29-1.24-.77-1.65-1.38-.37-.6-.62-1.29-.72-2.05h7.29c.6,0,1.15.09,1.68.09h.12c.43,0,.85-.03,1.21-.07.37-.03.62-.05.76-.05.17,0,.3-.13.32-.3.02-.21.05-.53.09-.97h0c.02-.43.04-.92.04-1.47v-.02ZM20.36,25.66c-.23-.71-.44-1.4-.67-2.12-.23-.71-.44-1.38-.62-2.05-.18-.64-.34-1.24-.51-1.79h-.05c-.25,1.2-.52,2.2-.84,3.17l.06-.2c-.34,1.1-.69,2.25-1.06,3.4-.3,1.17-.67,2.25-1.01,3.22h5.84c-.14-.48-.32-1.06-.53-1.66-.21-.62-.41-1.29-.62-1.98Z"/>
  </g>
</svg>