<?xml version="1.0" encoding="UTF-8"?>
<svg id="Capa_2" data-name="Capa 2" xmlns="http://www.w3.org/2000/svg" viewBox="0 0 55.61 55.61">
  <defs>
    <style>
      .cls-1 {
        fill: #fff;
      }
    </style>
  </defs>
  <g id="Capa_1-2" data-name="Capa 1">
    <path class="cls-1" d="M54.24,6.87c-1.21-2.37-3.13-4.29-5.5-5.5-2.69-1.37-6.21-1.37-13.26-1.37h-15.36c-7.04,0-10.57,0-13.26,1.37-2.37,1.21-4.29,3.13-5.5,5.5-1.37,2.69-1.37,6.21-1.37,13.26v15.36c0,7.04,0,10.57,1.37,13.26,1.21,2.37,3.13,4.29,5.5,5.5,2.69,1.37,6.21,1.37,13.26,1.37h15.36c7.04,0,10.57,0,13.26-1.37,2.37-1.21,4.29-3.13,5.5-5.5,1.37-2.69,1.37-6.21,1.37-13.26v-15.36c0-7.04,0-10.57-1.37-13.26ZM20.95,38.61l2,.09h.27s.19-.18.19-.18l18.42-18.98.19.18v17.18c-.59.58-1.19,1.15-1.79,1.72l-1.04.97,1.41.08,4.63.25-4.71,4.78-11.42-.96,7.92-7.71.18-.18v-5.04l-1.03,1.02-10.52,10.4-1.86,1.06-13.58-1.15,22.35-24.31,1-1.08-1.47.07-1.29.06h-.25s-.17.2-.17.2l-16.23,17.77-.59.11c-.45.09-.89.17-1.34.26v-15.48l.72-.85.91-1.07-1.4.07h-.15s-2.47-.59-2.47-.59v-3.39l13.39-1.13.75.42-6.23,7.17-.15.17v3.14l1.06-1.22,8.76-10.05,17.79-1.49.24.68-24.93,25.99-.92.96,1.33.06ZM45.75,39.34h0s0,0,0,0h0Z"/>
  </g>
</svg>