<?xml version="1.0" encoding="UTF-8"?>
<svg id="Capa_2" data-name="Capa 2" xmlns="http://www.w3.org/2000/svg" viewBox="0 0 55.61 55.61">
  <defs>
    <style>
      .cls-1 {
        fill: #fff;
      }
    </style>
  </defs>
  <g id="Capa_1-2" data-name="Capa 1">
    <g>
      <path class="cls-1" d="M54.24,6.87c-1.21-2.37-3.13-4.29-5.5-5.5-2.69-1.37-6.21-1.37-13.26-1.37h-15.36c-7.04,0-10.57,0-13.26,1.37-2.37,1.21-4.29,3.13-5.5,5.5-1.37,2.69-1.37,6.21-1.37,13.26v15.36c0,7.04,0,10.57,1.37,13.26,1.21,2.37,3.13,4.29,5.5,5.5,2.69,1.37,6.21,1.37,13.26,1.37h15.36c7.04,0,10.57,0,13.26-1.37,2.37-1.21,4.29-3.13,5.5-5.5,1.37-2.69,1.37-6.21,1.37-13.26v-15.36c0-7.04,0-10.57-1.37-13.26ZM28.09,27.75c-2.6,3.8-7.1,3.74-11.13,3.74v7.8c.03.23-.16.34-.35.34h-4.42c-.19,0-.28-.1-.28-.32V14.32c0-.17.07-.27.23-.27,2.4,0,4.8-.15,7.2-.15,3.9,0,8.12,1.36,9.6,5.52.35,1.02.53,2.07.53,3.16,0,2.09-.46,3.81-1.39,5.18ZM43.69,25.07c0,.18-.13.27-.37.27-1.73-.12-4.41.3-5.67,1.72v12.31c0,.23-.1.35-.3.35h-4.38c-.21.03-.4-.17-.37-.39v-13.36c0-1.79.04-3.64-.22-5.41-.04-.16.11-.32.26-.27h4.08c.22,0,.43.16.49.39.3.69.34,1.53.34,2.28.7-.85,1.54-1.56,2.49-2.09,1.01-.6,2.16-.9,3.33-.88.19-.03.36.15.34.35v4.73Z"/>
      <path class="cls-1" d="M22.26,19.18c-1.52-.64-3.64-.68-5.28-.44v8.16c1.6.12,3.27.13,4.81-.39,1.7-.5,2.63-2,2.63-3.79.05-1.53-.77-3-2.16-3.55Z"/>
    </g>
  </g>
</svg>