<?xml version="1.0" encoding="UTF-8"?>
<svg id="Capa_2" data-name="Capa 2" xmlns="http://www.w3.org/2000/svg" viewBox="0 0 55.61 55.61">
  <defs>
    <style>
      .cls-1 {
        fill: #fff;
      }
    </style>
  </defs>
  <g id="Capa_1-2" data-name="Capa 1">
    <g>
      <path class="cls-1" d="M21.25,20.16c-.88-.35-1.82-.5-2.79-.47-.62,0-1.16,0-1.61.02-.47-.02-.8,0-.97.02v7.95c.33.02.64.05.92.05h1.25c.92,0,1.85-.14,2.72-.43.76-.21,1.42-.66,1.94-1.25.5-.59.73-1.4.73-2.44.02-.73-.17-1.47-.54-2.11-.4-.62-.97-1.09-1.66-1.35Z"/>
      <path class="cls-1" d="M54.24,6.87c-1.21-2.37-3.13-4.29-5.5-5.5-2.69-1.37-6.21-1.37-13.26-1.37h-15.36c-7.04,0-10.57,0-13.26,1.37-2.37,1.21-4.29,3.13-5.5,5.5-1.37,2.69-1.37,6.21-1.37,13.26v15.36c0,7.04,0,10.57,1.37,13.26,1.21,2.37,3.13,4.29,5.5,5.5,2.69,1.37,6.21,1.37,13.26,1.37h15.36c7.04,0,10.57,0,13.26-1.37,2.37-1.21,4.29-3.13,5.5-5.5,1.37-2.69,1.37-6.21,1.37-13.26v-15.36c0-7.04,0-10.57-1.37-13.26ZM27.19,28.52c-.94,1.33-2.27,2.32-3.81,2.89-1.61.59-3.38.8-5.32.8-.57,0-.95,0-1.18-.02-.24-.02-.57-.02-1.02-.02v7.59c.02.17-.09.31-.26.33h-4.59c-.19,0-.28-.1-.28-.31V15.43c0-.17.07-.26.24-.26.4,0,.78,0,1.33-.02.57-.02,1.16-.02,1.8-.05.64-.02,1.33-.02,2.06-.05s1.44-.02,2.15-.02c1.94,0,3.55.24,4.87.73,1.18.4,2.27,1.06,3.17,1.94.76.76,1.35,1.68,1.73,2.7.35.99.54,2.01.54,3.08,0,2.03-.47,3.72-1.42,5.04ZM43.97,37.72c-.66.95-1.59,1.68-2.65,2.11-1.16.49-2.58.75-4.29.75-1.09,0-2.15-.09-3.22-.31-.83-.14-1.66-.4-2.41-.76-.17-.09-.29-.26-.26-.45v-4.12c0-.07.03-.17.1-.21.07-.05.14-.02.21.02.92.54,1.89.93,2.93,1.16.9.24,1.84.35,2.79.35.9,0,1.54-.12,1.96-.33.38-.17.64-.57.64-.99,0-.33-.19-.64-.57-.95-.38-.31-1.16-.66-2.32-1.11-1.21-.43-2.32-.99-3.36-1.7-.73-.52-1.35-1.21-1.8-2.01-.38-.76-.57-1.59-.54-2.42,0-1.02.28-1.99.81-2.86.59-.95,1.46-1.7,2.48-2.18,1.11-.57,2.51-.83,4.19-.83.97,0,1.96.07,2.93.21.71.09,1.4.28,2.03.54.09.02.19.12.24.21.02.09.05.19.05.28v3.86c0,.09-.05.19-.12.24-.21.05-.33.05-.43,0-.71-.38-1.47-.64-2.27-.8-.88-.19-1.75-.31-2.65-.31-.47-.02-.97.05-1.42.17-.31.07-.57.24-.73.47-.12.19-.19.43-.19.64s.09.43.24.62c.21.26.49.47.8.64.54.28,1.11.54,1.68.78,1.28.43,2.51,1.02,3.65,1.73.78.49,1.42,1.16,1.87,1.96.38.75.57,1.59.54,2.43.03,1.11-.31,2.22-.92,3.15Z"/>
    </g>
  </g>
</svg>