<?xml version="1.0" encoding="UTF-8"?>
<svg id="Capa_2" data-name="Capa 2" xmlns="http://www.w3.org/2000/svg" viewBox="0 0 55.61 55.61">
  <defs>
    <style>
      .cls-1 {
        fill: #fff;
      }
    </style>
  </defs>
  <g id="Capa_1-2" data-name="Capa 1">
    <path class="cls-1" d="M54.24,6.87c-1.21-2.37-3.13-4.29-5.5-5.5-2.69-1.37-6.21-1.37-13.26-1.37h-15.36c-7.04,0-10.57,0-13.26,1.37-2.37,1.21-4.29,3.13-5.5,5.5-1.37,2.69-1.37,6.21-1.37,13.26v15.36c0,7.04,0,10.57,1.37,13.26,1.21,2.37,3.13,4.29,5.5,5.5,2.69,1.37,6.21,1.37,13.26,1.37h15.36c7.04,0,10.57,0,13.26-1.37,2.37-1.21,4.29-3.13,5.5-5.5,1.37-2.69,1.37-6.21,1.37-13.26v-15.36c0-7.04,0-10.57-1.37-13.26ZM23.55,26.81c-.23-.71-.43-1.39-.66-2.1s-.43-1.37-.62-2.03c-.18-.64-.34-1.23-.5-1.78h-.05c-.21.98-.46,1.96-.78,2.94-.34,1.09-.68,2.23-1.05,3.37-.32,1.16-.66,2.23-1,3.19h5.79c-.14-.48-.32-1.05-.52-1.64-.21-.61-.41-1.27-.62-1.96h0ZM33.06,40.72h-4.77c-.16.02-.32-.09-.36-.25l-1.87-5.43h-8.48l-1.73,5.36c-.05.21-.23.34-.43.32h-4.29c-.25,0-.32-.14-.25-.41l7.34-21.14c.07-.23.14-.48.23-.75.09-.48.14-.98.14-1.48-.02-.11.07-.23.18-.25h5.91c.18,0,.27.07.3.18l8.32,23.49c.07.25,0,.36-.23.36h0ZM40.81,40.38c0,.25-.09.36-.29.36h-4.47c-.23,0-.34-.14-.34-.36v-17.56c0-.23.09-.32.3-.32h4.51c.21,0,.29.11.29.32v17.56ZM40.34,19.79c-.53.55-1.3.84-2.08.8-.75.02-1.48-.27-2.03-.8-.52-.57-.8-1.32-.78-2.1-.02-.78.27-1.5.82-2.03.55-.52,1.28-.8,2.03-.8.89,0,1.57.27,2.08.8.5.55.78,1.28.75,2.03.02.78-.25,1.53-.8,2.1h0Z"/>
  </g>
</svg>